<svg xmlns="http://www.w3.org/2000/svg" width="1000" height="650" viewBox="0 0 1000 650">
<rect width="1000" height="650" fill="white"/>
<text x="45" y="35" font-family="DejaVu Sans,Arial,sans-serif" font-size="25" dominant-baseline="text-before-edge">RC low-pass network</text>
<circle cx="180" cy="350" r="40" fill="none" stroke="rgb(0,0,0)" stroke-width="3"/>
<polyline points="180,280 180,310" fill="none" stroke="rgb(0,0,0)" stroke-width="3" stroke-linejoin="round"/>
<polyline points="180,390 180,420" fill="none" stroke="rgb(0,0,0)" stroke-width="3" stroke-linejoin="round"/>
<text x="170" y="318" font-family="DejaVu Sans,Arial,sans-serif" font-size="25" dominant-baseline="text-before-edge">+</text>
<text x="170" y="353" font-family="DejaVu Sans,Arial,sans-serif" font-size="25" dominant-baseline="text-before-edge">−</text>
<text x="55" y="310" font-family="DejaVu Sans,Arial,sans-serif" font-size="22" dominant-baseline="text-before-edge">V1</text>
<text x="55" y="350" font-family="DejaVu Sans,Arial,sans-serif" font-size="22" dominant-baseline="text-before-edge">1 V</text>
<polyline points="180,280 180,200 380,200" fill="none" stroke="rgb(0,0,0)" stroke-width="3" stroke-linejoin="round"/>
<polyline points="380,200 400,200" fill="none" stroke="rgb(0,0,0)" stroke-width="3" stroke-linejoin="round"/>
<polyline points="400,188 460,188 460,212 400,212 400,188" fill="none" stroke="rgb(0,0,0)" stroke-width="3" stroke-linejoin="round"/>
<polyline points="460,200 480,200" fill="none" stroke="rgb(0,0,0)" stroke-width="3" stroke-linejoin="round"/>
<text x="390" y="140" font-family="DejaVu Sans,Arial,sans-serif" font-size="22" dominant-baseline="text-before-edge">R1  10k Ω</text>
<text x="220" y="165" font-family="DejaVu Sans,Arial,sans-serif" font-size="22" dominant-baseline="text-before-edge">VIN</text>
<polyline points="480,200 700,200 700,290" fill="none" stroke="rgb(0,0,0)" stroke-width="3" stroke-linejoin="round"/>
<polyline points="700,290 700,332" fill="none" stroke="rgb(0,0,0)" stroke-width="3" stroke-linejoin="round"/>
<polyline points="674,332 726,332" fill="none" stroke="rgb(0,0,0)" stroke-width="3" stroke-linejoin="round"/>
<polyline points="674,348 726,348" fill="none" stroke="rgb(0,0,0)" stroke-width="3" stroke-linejoin="round"/>
<polyline points="700,348 700,390" fill="none" stroke="rgb(0,0,0)" stroke-width="3" stroke-linejoin="round"/>
<text x="750" y="300" font-family="DejaVu Sans,Arial,sans-serif" font-size="22" dominant-baseline="text-before-edge">C1</text>
<text x="750" y="345" font-family="DejaVu Sans,Arial,sans-serif" font-size="22" dominant-baseline="text-before-edge">100n F</text>
<polyline points="700,390 700,510 180,510 180,420" fill="none" stroke="rgb(0,0,0)" stroke-width="3" stroke-linejoin="round"/>
<polyline points="440,510 440,530" fill="none" stroke="rgb(0,0,0)" stroke-width="3" stroke-linejoin="round"/>
<polyline points="418,530 462,530" fill="none" stroke="rgb(0,0,0)" stroke-width="3" stroke-linejoin="round"/>
<polyline points="426,539 454,539" fill="none" stroke="rgb(0,0,0)" stroke-width="3" stroke-linejoin="round"/>
<polyline points="434,548 446,548" fill="none" stroke="rgb(0,0,0)" stroke-width="3" stroke-linejoin="round"/>
<circle cx="700" cy="200" r="5" fill="rgb(0,0,0)" stroke="rgb(0,0,0)" stroke-width="3"/>
<text x="715" y="165" font-family="DejaVu Sans,Arial,sans-serif" font-size="22" dominant-baseline="text-before-edge">VOUT</text>
</svg>
