<svg xmlns="http://www.w3.org/2000/svg" width="1000" height="650" viewBox="0 0 1000 650">
<rect width="1000" height="650" fill="white"/>
<text x="45" y="35" font-family="DejaVu Sans,Arial,sans-serif" font-size="25" dominant-baseline="text-before-edge">Resistor divider</text>
<circle cx="180" cy="350" r="40" fill="none" stroke="rgb(0,0,0)" stroke-width="3"/>
<polyline points="180,280 180,310" fill="none" stroke="rgb(0,0,0)" stroke-width="3" stroke-linejoin="round"/>
<polyline points="180,390 180,420" fill="none" stroke="rgb(0,0,0)" stroke-width="3" stroke-linejoin="round"/>
<text x="170" y="318" font-family="DejaVu Sans,Arial,sans-serif" font-size="25" dominant-baseline="text-before-edge">+</text>
<text x="170" y="353" font-family="DejaVu Sans,Arial,sans-serif" font-size="25" dominant-baseline="text-before-edge">−</text>
<text x="70" y="330" font-family="DejaVu Sans,Arial,sans-serif" font-size="22" dominant-baseline="text-before-edge">V1</text>
<text x="65" y="365" font-family="DejaVu Sans,Arial,sans-serif" font-size="22" dominant-baseline="text-before-edge">5 V</text>
<polyline points="180,280 180,180 430,180" fill="none" stroke="rgb(0,0,0)" stroke-width="3" stroke-linejoin="round"/>
<polyline points="430,180 450,180 460,168 470,192 480,168 490,192 500,168 510,180 530,180" fill="none" stroke="rgb(0,0,0)" stroke-width="3" stroke-linejoin="round"/>
<text x="440" y="125" font-family="DejaVu Sans,Arial,sans-serif" font-size="22" dominant-baseline="text-before-edge">R1  1k Ω</text>
<polyline points="530,180 700,180 700,290" fill="none" stroke="rgb(0,0,0)" stroke-width="3" stroke-linejoin="round"/>
<polyline points="700,290 700,310 712,320 688,330 712,340 688,350 712,360 700,370 700,390" fill="none" stroke="rgb(0,0,0)" stroke-width="3" stroke-linejoin="round"/>
<text x="745" y="310" font-family="DejaVu Sans,Arial,sans-serif" font-size="22" dominant-baseline="text-before-edge">R2</text>
<text x="745" y="350" font-family="DejaVu Sans,Arial,sans-serif" font-size="22" dominant-baseline="text-before-edge">10k Ω</text>
<polyline points="700,390 700,510 180,510 180,420" fill="none" stroke="rgb(0,0,0)" stroke-width="3" stroke-linejoin="round"/>
<polyline points="440,510 440,530" fill="none" stroke="rgb(0,0,0)" stroke-width="3" stroke-linejoin="round"/>
<polyline points="418,530 462,530" fill="none" stroke="rgb(0,0,0)" stroke-width="3" stroke-linejoin="round"/>
<polyline points="426,539 454,539" fill="none" stroke="rgb(0,0,0)" stroke-width="3" stroke-linejoin="round"/>
<polyline points="434,548 446,548" fill="none" stroke="rgb(0,0,0)" stroke-width="3" stroke-linejoin="round"/>
<text x="470" y="545" font-family="DejaVu Sans,Arial,sans-serif" font-size="22" dominant-baseline="text-before-edge">GND</text>
<circle cx="700" cy="180" r="5" fill="rgb(0,0,0)" stroke="rgb(0,0,0)" stroke-width="3"/>
<text x="725" y="165" font-family="DejaVu Sans,Arial,sans-serif" font-size="22" dominant-baseline="text-before-edge">VOUT</text>
<text x="220" y="145" font-family="DejaVu Sans,Arial,sans-serif" font-size="22" dominant-baseline="text-before-edge">VIN</text>
</svg>
